<svg xmlns="http://www.w3.org/2000/svg" width="1200" height="630" viewBox="0 0 1200 630" fill="none">
  <rect width="1200" height="630" fill="#0B0B09"/>
  <circle cx="502" cy="316" r="210" fill="#E07A5F" fill-opacity=".12"/>
  <circle cx="626" cy="300" r="180" fill="#81B29A" fill-opacity=".12"/>
  <g stroke-width="2" fill="none">
    <ellipse cx="560" cy="315" rx="335" ry="92" stroke="#F2CC8F" stroke-opacity=".64"/>
    <ellipse cx="560" cy="315" rx="292" ry="72" stroke="#E07A5F" stroke-opacity=".56" transform="rotate(19 560 315)"/>
    <ellipse cx="560" cy="315" rx="258" ry="64" stroke="#81B29A" stroke-opacity=".52" transform="rotate(-22 560 315)"/>
    <ellipse cx="560" cy="315" rx="218" ry="48" stroke="#F4F1DE" stroke-opacity=".34" transform="rotate(38 560 315)"/>
  </g>
  <rect x="792" y="70" width="342" height="492" rx="10" fill="#0E0D0A" stroke="#F4F1DE" stroke-opacity=".15"/>
  <rect x="824" y="110" width="48" height="48" rx="8" fill="#F2CC8F"/>
  <rect x="824" y="196" width="248" height="12" rx="6" fill="#F4F1DE" fill-opacity=".36"/>
  <rect x="824" y="242" width="198" height="12" rx="6" fill="#F4F1DE" fill-opacity=".26"/>
  <rect x="824" y="288" width="264" height="12" rx="6" fill="#F4F1DE" fill-opacity=".3"/>
  <rect x="824" y="382" width="88" height="38" rx="8" fill="#F2CC8F"/>
  <rect x="924" y="382" width="88" height="38" rx="8" fill="#F4F1DE" fill-opacity=".09"/>
  <rect x="1024" y="382" width="88" height="38" rx="8" fill="#F4F1DE" fill-opacity=".09"/>
  <text x="824" y="486" fill="#F4F1DE" font-family="Arial, sans-serif" font-size="38" font-weight="700">Orbit Weaver</text>
</svg>
